<svg width="59" height="59" viewBox="0 0 59 59" fill="none" xmlns="http://www.w3.org/2000/svg">
<path fill-rule="evenodd" clip-rule="evenodd" d="M0.829102 29.875C0.829102 22.2048 3.87607 14.8488 9.2997 9.42519C14.7233 4.00156 22.0794 0.95459 29.7495 0.95459C37.4197 0.95459 44.7757 4.00156 50.1994 9.42519C55.623 14.8488 58.67 22.2048 58.67 29.875C58.67 37.5452 55.623 44.9012 50.1994 50.3249C44.7757 55.7485 37.4197 58.7955 29.7495 58.7955C22.0794 58.7955 14.7233 55.7485 9.2997 50.3249C3.87607 44.9012 0.829102 37.5452 0.829102 29.875ZM40.0287 19.6003C40.438 20.0097 40.6679 20.5649 40.6679 21.1439C40.6679 21.7228 40.438 22.2781 40.0287 22.6875L32.8368 29.875L40.0287 37.0626C40.4386 37.4725 40.669 38.0286 40.669 38.6084C40.669 39.1881 40.4386 39.7442 40.0287 40.1542C39.6187 40.5641 39.0627 40.7944 38.4829 40.7944C37.9031 40.7944 37.347 40.5641 36.9371 40.1542L29.7495 32.9623L22.562 40.1542C22.359 40.3572 22.118 40.5182 21.8528 40.628C21.5876 40.7379 21.3033 40.7944 21.0162 40.7944C20.7291 40.7944 20.4448 40.7379 20.1796 40.628C19.9144 40.5182 19.6734 40.3572 19.4704 40.1542C19.2674 39.9512 19.1064 39.7102 18.9965 39.4449C18.8867 39.1797 18.8301 38.8954 18.8301 38.6084C18.8301 38.3213 18.8867 38.037 18.9965 37.7718C19.1064 37.5065 19.2674 37.2656 19.4704 37.0626L26.6623 29.875L19.4704 22.6875C19.0604 22.2775 18.8301 21.7215 18.8301 21.1417C18.8301 20.5619 19.0604 20.0059 19.4704 19.5959C19.8804 19.1859 20.4364 18.9556 21.0162 18.9556C21.596 18.9556 22.152 19.1859 22.562 19.5959L29.7495 26.7878L36.9371 19.5959C37.1399 19.3926 37.3808 19.2312 37.6461 19.1212C37.9113 19.0111 38.1957 18.9545 38.4829 18.9545C38.7701 18.9545 39.0544 19.0111 39.3197 19.1212C39.5849 19.2312 39.8259 19.3969 40.0287 19.6003Z" fill="#FF8888"/>
</svg>
